# Blender v2.79 (sub 0) OBJ File: ''
# www.blender.org
mtllib TimerCollider.mtl
o Cylinder.001
v 0.000000 -1.145000 -0.550000
v 0.000000 1.145000 -0.550000
v 0.388909 -1.145000 -0.388909
v 0.388909 1.145000 -0.388909
v 0.550000 -1.145000 0.000000
v 0.550000 1.145000 0.000000
v 0.388909 -1.145000 0.388909
v 0.388909 1.145000 0.388909
v -0.000000 -1.145000 0.550000
v -0.000000 1.145000 0.550000
v -0.388909 -1.145000 0.388909
v -0.388909 1.145000 0.388909
v -0.550000 -1.145000 -0.000000
v -0.550000 1.145000 -0.000000
v -0.388909 -1.145000 -0.388909
v -0.388909 1.145000 -0.388909
vn 0.0000 -0.6302 -0.7764
vn 0.0000 0.6302 -0.7764
vn 0.5490 0.6302 -0.5490
vn 0.5490 -0.6302 -0.5490
vn 0.7764 0.6302 0.0000
vn 0.7764 -0.6302 0.0000
vn 0.5490 0.6302 0.5490
vn 0.5490 -0.6302 0.5490
vn 0.0000 0.6302 0.7764
vn 0.0000 -0.6302 0.7764
vn -0.5490 0.6302 0.5490
vn -0.5490 -0.6302 0.5490
vn -0.7764 0.6302 0.0000
vn -0.7764 -0.6302 0.0000
vn -0.5490 0.6302 -0.5490
vn -0.5490 -0.6302 -0.5490
usemtl None
s 1
f 1//1 2//2 4//3 3//4
f 3//4 4//3 6//5 5//6
f 5//6 6//5 8//7 7//8
f 7//8 8//7 10//9 9//10
f 9//10 10//9 12//11 11//12
f 11//12 12//11 14//13 13//14
f 4//3 2//2 16//15 14//13 12//11 10//9 8//7 6//5
f 13//14 14//13 16//15 15//16
f 15//16 16//15 2//2 1//1
f 1//1 3//4 5//6 7//8 9//10 11//12 13//14 15//16
